<?xml version="1.0" encoding="utf-8"?>
<!-- Generator: Adobe Illustrator 16.0.0, SVG Export Plug-In . SVG Version: 6.00 Build 0)  -->
<!DOCTYPE svg PUBLIC "-//W3C//DTD SVG 1.1//EN" "http://www.w3.org/Graphics/SVG/1.1/DTD/svg11.dtd">
<svg version="1.1" id="Layer_1" xmlns="http://www.w3.org/2000/svg" xmlns:xlink="http://www.w3.org/1999/xlink" x="0px" y="0px"
	 width="155px" height="34.5px" viewBox="0 0 155 34.5" enable-background="new 0 0 155 34.5" xml:space="preserve">
<g>
	<path d="M235.761,220.569v3.305h11.933v9.913h-11.933v39.012h-13.86v-39.012h-5.783v-9.913h5.783v-3.029
		c0-5.384,1.636-9.653,4.911-12.806c3.273-3.15,7.344-4.727,12.209-4.727c4.864,0,9.285,1.836,13.264,5.508l-4.957,9.271
		c-2.019-2.325-4.254-3.488-6.701-3.488c-1.409,0-2.57,0.505-3.488,1.515C236.221,217.127,235.761,218.611,235.761,220.569z"/>
	<path d="M297.63,272.799h-12.943v-5.966c-3.55,4.468-7.94,6.701-13.172,6.701c-5.232,0-9.624-1.515-13.172-4.544
		c-3.55-3.029-5.324-7.068-5.324-12.116c0-5.049,1.836-8.827,5.508-11.337c3.672-2.508,8.689-3.763,15.054-3.763h10.28v-0.276
		c0-5.262-2.785-7.894-8.353-7.894c-2.386,0-4.911,0.475-7.573,1.423c-2.663,0.95-4.911,2.127-6.747,3.534l-6.15-8.904
		c6.486-4.711,13.892-7.068,22.214-7.068c5.997,0,10.892,1.5,14.687,4.498c3.793,2.999,5.691,7.743,5.691,14.228V272.799z
		 M283.769,253.982v-2.387h-8.628c-5.507,0-8.262,1.713-8.262,5.14c0,1.775,0.657,3.137,1.974,4.085
		c1.316,0.949,3.197,1.423,5.645,1.423c2.447,0,4.604-0.749,6.472-2.249C282.834,258.496,283.769,256.492,283.769,253.982z"/>
	<path d="M326.083,233.328v22.123c0,1.897,0.49,3.382,1.469,4.452c0.979,1.071,2.143,1.606,3.489,1.606
		c2.569,0,4.741-1.162,6.516-3.488l5.142,9.638c-4.286,3.917-8.798,5.875-13.539,5.875c-4.744,0-8.753-1.561-12.027-4.682
		c-3.273-3.121-4.91-7.374-4.91-12.759v-22.765h-5.784v-9.913h5.784v-14.779h13.859v14.779h11.934v9.913H326.083z"/>
	<path d="M385.749,258.204c0,4.651-1.684,8.369-5.049,11.152c-3.366,2.786-7.68,4.177-12.941,4.177
		c-3.551,0-7.238-0.643-11.062-1.928c-3.824-1.284-7.206-3.089-10.143-5.415l4.957-7.986c5.69,4.284,11.199,6.425,16.522,6.425
		c2.325,0,4.161-0.535,5.507-1.606c1.346-1.07,2.02-2.433,2.02-4.084c0-2.447-3.245-4.651-9.73-6.61
		c-0.49-0.184-0.857-0.305-1.102-0.367c-10.158-2.753-15.237-7.343-15.237-13.769c0-4.528,1.76-8.154,5.279-10.878
		c3.518-2.722,8.091-4.084,13.722-4.084c5.63,0,10.954,1.653,15.972,4.957l-3.854,7.619c-3.979-2.631-8.293-3.947-12.943-3.947
		c-2.449,0-4.438,0.445-5.967,1.331c-1.531,0.888-2.294,2.218-2.294,3.993c0,1.592,0.795,2.754,2.386,3.488
		c1.102,0.551,2.647,1.071,4.637,1.561c1.988,0.491,3.748,0.979,5.279,1.469c1.528,0.49,3.013,1.041,4.45,1.652
		c1.437,0.612,2.984,1.469,4.635,2.571C384.096,250.126,385.749,253.555,385.749,258.204z"/>
	<path d="M410.073,232.227v24.784c0,2.326,0.612,4.177,1.835,5.553c1.225,1.377,2.938,2.065,5.141,2.065s4.314-1.07,6.333-3.212
		l4.223,7.251c-3.612,3.245-7.604,4.865-11.979,4.865c-4.375,0-8.109-1.515-11.199-4.544c-3.091-3.029-4.635-7.113-4.635-12.254
		v-24.508h-6.15v-8.261h6.15v-15.33h10.281v15.33h12.851v8.261H410.073z"/>
	<path d="M461.384,233.604c-5.079,0-8.903,1.653-11.474,4.957c-2.569,3.305-3.854,7.742-3.854,13.31v20.929h-10.28v-48.833h10.28
		v9.821c1.652-3.06,3.901-5.568,6.746-7.527c2.846-1.958,5.86-2.968,9.042-3.029l0.093,10.373
		C461.751,233.604,461.569,233.604,461.384,233.604z"/>
	<path d="M511.32,272.799h-9.363v-6.517c-4.04,4.835-9.454,7.251-16.248,7.251c-5.079,0-9.285-1.437-12.621-4.314
		c-3.335-2.875-5.002-6.715-5.002-11.52c0-4.803,1.773-8.399,5.325-10.785c3.548-2.387,8.351-3.58,14.41-3.58h13.309v-1.836
		c0-6.485-3.61-9.729-10.83-9.729c-4.53,0-9.24,1.652-14.137,4.956l-4.589-6.425c5.934-4.711,12.667-7.068,20.194-7.068
		c5.751,0,10.449,1.455,14.09,4.36c3.64,2.908,5.462,7.481,5.462,13.723V272.799z M501.039,254.625v-4.131h-11.565
		c-7.405,0-11.106,2.326-11.106,6.976c0,2.386,0.916,4.208,2.753,5.462c1.836,1.255,4.391,1.881,7.665,1.881
		c3.273,0,6.134-0.918,8.583-2.753C499.814,260.224,501.039,257.745,501.039,254.625z"/>
	<path d="M551.801,223.231c6.546,0,12.146,2.265,16.798,6.792c4.649,4.53,6.976,10.556,6.976,18.083
		c0,7.527-2.311,13.647-6.93,18.359c-4.621,4.712-10.005,7.068-16.156,7.068c-6.15,0-11.673-2.692-16.568-8.078v25.151h-10.28
		v-66.641h10.28v8.537C539.959,226.322,545.251,223.231,551.801,223.231z M535.735,248.474c0,4.651,1.407,8.461,4.224,11.429
		c2.813,2.969,6.242,4.452,10.28,4.452c4.039,0,7.557-1.468,10.557-4.406c2.996-2.937,4.497-6.746,4.497-11.428
		s-1.469-8.567-4.405-11.658c-2.937-3.09-6.457-4.635-10.557-4.635s-7.559,1.545-10.372,4.635
		C537.143,239.953,535.735,243.824,535.735,248.474z"/>
</g>
<path fill="#EA237C" d="M3.213,12.781c0,1.057,0,2.105,0,3.211c0.944-0.205,0.858,0.492,0.948,1.032
	c0.491,2.977,0.988,5.954,1.455,8.935c0.062,0.398,0.24,0.582,0.594,0.653c0.629,0.125,1.262,0.243,1.892,0.363
	c0.555,0,1.108,0,1.662,0c1.004-2.362,3.222-8.154,3.686-14.194C10.051,12.781,6.645,12.781,3.213,12.781z"/>
<path fill="#D61877" d="M12.266,26.631c0.412-0.076,0.596-0.297,0.666-0.734c0.464-2.981,0.96-5.958,1.453-8.935
	c0.086-0.521-0.008-1.227,0.939-0.938c0-1.123,0-2.157,0-3.242c-0.625,0-1.249,0-1.874,0c-0.464,6.04-2.682,11.832-3.686,14.194
	c0.223,0,0.445,0,0.667,0C11.044,26.86,11.654,26.743,12.266,26.631z"/>
<path fill-rule="evenodd" clip-rule="evenodd" fill="#EA237C" d="M13.276,7.1c-0.178,0.007-0.351,0.008-0.507-0.033
	c-0.07-0.479-0.032-0.982-0.232-1.362c-0.182-0.348-0.621-0.562-0.996-0.74c-0.094-0.303-0.12-0.653-0.293-0.899
	c-0.511-0.723-0.748-1.483-0.493-2.387c-0.797,0.577-1.561,1.104-2.294,1.67C8.207,3.545,8,3.774,7.85,4.036
	c0.4,0.064,0.708,0.41,0.708,0.829c0,0.296-0.154,0.556-0.385,0.705C8.41,5.853,8.558,6.211,8.558,6.609
	c0,0.896-0.727,1.624-1.624,1.624c-0.406,0-0.772-0.155-1.057-0.4C5.655,7.982,5.387,8.07,5.098,8.07
	c-0.458,0-0.862-0.224-1.118-0.565c-0.435,0.604-0.368,1.24-0.026,1.977c-0.9-0.158-1.54,0.114-1.86,0.94c0,0.285,0,0.571,0,0.857
	c0.31,0.719,0.825,0.986,1.632,0.978c3.254-0.035,6.507-0.037,9.762-0.01C13.589,10.519,13.542,8.779,13.276,7.1z"/>
<path fill-rule="evenodd" clip-rule="evenodd" fill="#D61877" d="M16.44,11.279c0-0.286,0-0.573,0-0.857
	c-0.329-0.78-0.901-1.133-1.841-0.91c0.287-0.734,0.403-1.372-0.023-1.986c-0.352-0.507-0.844-0.445-1.3-0.426
	c0.267,1.679,0.313,3.419,0.212,5.147c0.44,0.003,0.88,0.006,1.32,0.01C15.615,12.266,16.13,11.998,16.44,11.279z"/>
<g>
	<path d="M425.281,287l2.875-7.188h2.73l-4.539,11.291h-2.132l-4.539-11.291h2.729L425.281,287z"/>
	<path d="M438.752,279.812v2.246h-5.621v2.326h5.056v2.148h-5.056v2.342h5.799v2.229h-8.318v-11.291H438.752z"/>
	<path d="M448.718,283.559c0,1.809-0.716,2.978-2.148,3.505l2.859,4.038h-3.101l-2.503-3.602h-1.745v3.602h-2.52v-11.291h4.28
		c1.755,0,3.006,0.296,3.755,0.889S448.718,282.246,448.718,283.559z M445.681,284.899c0.312-0.28,0.469-0.724,0.469-1.333
		c0-0.608-0.162-1.026-0.484-1.251c-0.323-0.226-0.889-0.339-1.696-0.339h-1.89v3.343h1.841
		C444.782,285.319,445.368,285.18,445.681,284.899z"/>
	<path d="M452.327,282.065c-0.242,0.199-0.363,0.463-0.363,0.792s0.147,0.589,0.444,0.783c0.296,0.194,0.979,0.423,2.051,0.687
		s1.903,0.66,2.496,1.188c0.592,0.527,0.888,1.297,0.888,2.31c0,1.012-0.38,1.833-1.139,2.463s-1.758,0.945-2.996,0.945
		c-1.788,0-3.397-0.662-4.83-1.986l1.502-1.842c1.217,1.066,2.342,1.6,3.376,1.6c0.463,0,0.826-0.1,1.09-0.299
		c0.264-0.199,0.396-0.468,0.396-0.808c0-0.339-0.14-0.608-0.42-0.807s-0.834-0.401-1.663-0.606
		c-1.314-0.312-2.275-0.719-2.883-1.22c-0.608-0.5-0.913-1.287-0.913-2.358s0.385-1.898,1.155-2.479
		c0.77-0.582,1.731-0.872,2.883-0.872c0.754,0,1.508,0.129,2.262,0.388c0.753,0.258,1.41,0.625,1.97,1.098l-1.275,1.841
		c-0.98-0.743-1.992-1.114-3.037-1.114C452.9,281.766,452.569,281.866,452.327,282.065z"/>
	<path d="M458.376,279.812h2.52v11.291h-2.52V279.812z"/>
	<path d="M471.556,289.543c-1.142,1.115-2.547,1.672-4.216,1.672s-3.074-0.557-4.215-1.672c-1.143-1.114-1.713-2.5-1.713-4.159
		s0.57-3.045,1.713-4.159c1.141-1.115,2.546-1.672,4.215-1.672s3.074,0.557,4.216,1.672c1.142,1.114,1.712,2.501,1.712,4.159
		S472.697,288.429,471.556,289.543z M470.699,285.392c0-1.007-0.322-1.865-0.969-2.576c-0.646-0.71-1.44-1.066-2.382-1.066
		c-0.942,0-1.737,0.355-2.383,1.066c-0.646,0.711-0.969,1.569-0.969,2.576c0,1.007,0.322,1.863,0.969,2.568
		c0.646,0.705,1.44,1.058,2.383,1.058c0.941,0,1.735-0.353,2.382-1.058S470.699,286.399,470.699,285.392z"/>
	<path d="M481.683,279.812h2.521v11.291h-2.521l-5.378-7.075v7.075h-2.521v-11.291h2.358l5.54,7.269V279.812z"/>
	<path d="M487.125,279.812h4.572v11.291h-2.424v-9.142h-2.148V279.812z"/>
	<path d="M492.835,290.819c-0.273-0.274-0.411-0.611-0.411-1.009c0-0.398,0.138-0.735,0.411-1.01
		c0.275-0.274,0.611-0.412,1.01-0.412s0.735,0.137,1.01,0.412c0.275,0.274,0.412,0.611,0.412,1.01c0,0.398-0.137,0.735-0.412,1.009
		c-0.274,0.274-0.611,0.412-1.01,0.412S493.11,291.094,492.835,290.819z"/>
	<path d="M500.129,291.231c-1.562,0-2.73-0.53-3.506-1.591s-1.163-2.477-1.163-4.248c0-1.771,0.388-3.187,1.163-4.248
		c0.775-1.06,1.943-1.591,3.506-1.591c1.561,0,2.729,0.531,3.504,1.591c0.775,1.061,1.163,2.477,1.163,4.248
		c0,1.771-0.388,3.188-1.163,4.248S501.689,291.231,500.129,291.231z M498.465,282.67c-0.355,0.689-0.533,1.599-0.533,2.73
		c0,1.13,0.178,2.041,0.533,2.729s0.909,1.034,1.664,1.034c0.752,0,1.308-0.345,1.663-1.034s0.533-1.599,0.533-2.729
		c0-1.131-0.178-2.041-0.533-2.73c-0.355-0.689-0.911-1.034-1.663-1.034C499.374,281.637,498.82,281.981,498.465,282.67z"/>
	<path d="M505.401,290.819c-0.274-0.274-0.412-0.611-0.412-1.009c0-0.398,0.138-0.735,0.412-1.01
		c0.275-0.274,0.61-0.412,1.009-0.412c0.399,0,0.736,0.137,1.01,0.412c0.275,0.274,0.412,0.611,0.412,1.01
		c0,0.398-0.137,0.735-0.412,1.009c-0.273,0.274-0.61,0.412-1.01,0.412C506.012,291.231,505.677,291.094,505.401,290.819z"/>
	<path d="M512.694,291.231c-1.562,0-2.729-0.53-3.505-1.591s-1.163-2.477-1.163-4.248c0-1.771,0.388-3.187,1.163-4.248
		c0.775-1.06,1.943-1.591,3.505-1.591s2.729,0.531,3.504,1.591c0.776,1.061,1.164,2.477,1.164,4.248
		c0,1.771-0.388,3.188-1.164,4.248C515.424,290.701,514.256,291.231,512.694,291.231z M511.03,282.67
		c-0.355,0.689-0.533,1.599-0.533,2.73c0,1.13,0.178,2.041,0.533,2.729c0.356,0.689,0.909,1.034,1.664,1.034
		c0.753,0,1.309-0.345,1.663-1.034c0.355-0.689,0.533-1.599,0.533-2.729c0-1.131-0.178-2.041-0.533-2.73
		c-0.354-0.689-0.91-1.034-1.663-1.034C511.939,281.637,511.387,281.981,511.03,282.67z"/>
</g>
<g>
	<path fill="#EA237C" d="M414.409,378.065c0,3.223,0,6.419,0,9.789c2.878-0.624,2.619,1.5,2.891,3.146
		c1.497,9.076,3.013,18.153,4.436,27.242c0.19,1.213,0.733,1.774,1.81,1.989c1.921,0.384,3.848,0.741,5.772,1.109
		c1.689,0,3.378,0,5.067,0c3.061-7.202,9.821-24.86,11.239-43.275C435.256,378.065,424.872,378.065,414.409,378.065z"/>
	<path fill="#D61877" d="M442.01,420.289c1.256-0.231,1.817-0.904,2.028-2.238c1.418-9.089,2.93-18.164,4.433-27.241
		c0.261-1.589-0.027-3.74,2.864-2.86c0-3.422,0-6.575,0-9.885c-1.903,0-3.808,0-5.712,0c-1.418,18.415-8.178,36.073-11.239,43.275
		c0.678,0,1.356,0,2.034,0C438.284,420.99,440.146,420.633,442.01,420.289z"/>
	<path fill-rule="evenodd" clip-rule="evenodd" fill="#EA237C" d="M445.089,360.744c-0.542,0.022-1.067,0.024-1.546-0.101
		c-0.212-1.459-0.096-2.994-0.705-4.152c-0.556-1.06-1.893-1.712-3.039-2.255c-0.285-0.922-0.365-1.991-0.894-2.742
		c-1.556-2.205-2.278-4.524-1.502-7.279c-2.43,1.761-4.758,3.367-6.993,5.092c-0.776,0.6-1.408,1.299-1.863,2.099
		c1.222,0.197,2.158,1.248,2.158,2.525c0,0.903-0.469,1.694-1.173,2.151c0.721,0.86,1.173,1.955,1.173,3.166
		c0,2.734-2.216,4.951-4.951,4.951c-1.237,0-2.354-0.47-3.222-1.22c-0.679,0.457-1.497,0.725-2.376,0.725
		c-1.399,0-2.63-0.684-3.407-1.725c-1.324,1.841-1.123,3.781-0.083,6.027c-2.742-0.48-4.691,0.349-5.67,2.867
		c0,0.87,0,1.742,0,2.616c0.946,2.191,2.516,3.006,4.979,2.981c9.918-0.106,19.839-0.113,29.759-0.032
		C446.046,371.168,445.901,365.863,445.089,360.744z"/>
	<path fill-rule="evenodd" clip-rule="evenodd" fill="#D61877" d="M454.737,373.488c0-0.874,0-1.746,0-2.616
		c-1.003-2.379-2.747-3.455-5.613-2.774c0.871-2.238,1.229-4.18-0.072-6.054c-1.072-1.543-2.57-1.357-3.964-1.3
		c0.812,5.119,0.958,10.425,0.645,15.693c1.342,0.011,2.684,0.018,4.025,0.032C452.222,376.494,453.791,375.679,454.737,373.488z"/>
	<circle fill-rule="evenodd" clip-rule="evenodd" fill="#FFFFFF" cx="422.478" cy="377.352" r="5.208"/>
	<circle fill-rule="evenodd" clip-rule="evenodd" fill="#FFFFFF" cx="438.599" cy="377.352" r="5.209"/>
	<circle fill-rule="evenodd" clip-rule="evenodd" fill="#212121" cx="422.539" cy="377.291" r="1.85"/>
	<circle fill-rule="evenodd" clip-rule="evenodd" fill="#212121" cx="438.66" cy="377.291" r="1.85"/>
	<circle fill-rule="evenodd" clip-rule="evenodd" fill="#FFFFFF" cx="423.713" cy="376.361" r="1.314"/>
	<circle fill-rule="evenodd" clip-rule="evenodd" fill="#FFFFFF" cx="439.834" cy="376.361" r="1.314"/>
	<path fill-rule="evenodd" clip-rule="evenodd" fill="#FFFFFF" d="M421.883,385.25h18.533c0,0-2.647,9.303-9.303,9.303
		C424.457,394.553,421.883,385.25,421.883,385.25z"/>
	<g>
		<path fill-rule="evenodd" clip-rule="evenodd" fill="#D61877" d="M429.021,390.202c-1.535,0-2.784,1.21-2.854,2.728
			c1.306,1.181,2.938,2.029,4.945,2.029c0.017,0,0.032-0.002,0.048-0.002c0.447-0.505,0.721-1.167,0.721-1.894
			C431.882,391.483,430.601,390.202,429.021,390.202z"/>
		<path fill-rule="evenodd" clip-rule="evenodd" fill="#D61877" d="M431.953,390.202c-1.58,0-2.861,1.281-2.861,2.861
			c0,0.657,0.224,1.259,0.595,1.742c0.454,0.097,0.927,0.155,1.426,0.155c1.345,0,2.523-0.384,3.552-0.99
			c0.096-0.286,0.149-0.59,0.149-0.907C434.813,391.483,433.532,390.202,431.953,390.202z"/>
	</g>
</g>
<g>
	<path d="M686.281,435l2.875-7.188h2.73l-4.539,11.291h-2.133l-4.538-11.291h2.729L686.281,435z"/>
	<path d="M699.752,427.812v2.246h-5.621v2.326h5.056v2.148h-5.056v2.342h5.799v2.229h-8.318v-11.291H699.752z"/>
	<path d="M709.718,431.559c0,1.809-0.716,2.978-2.148,3.505l2.858,4.038h-3.101l-2.503-3.602h-1.745v3.602h-2.52v-11.291h4.28
		c1.755,0,3.006,0.296,3.755,0.889S709.718,430.246,709.718,431.559z M706.681,432.899c0.312-0.28,0.469-0.724,0.469-1.333
		c0-0.608-0.161-1.026-0.484-1.251c-0.323-0.226-0.889-0.339-1.696-0.339h-1.89v3.343h1.841
		C705.781,433.319,706.368,433.18,706.681,432.899z"/>
	<path d="M713.327,430.065c-0.242,0.199-0.363,0.463-0.363,0.792s0.147,0.589,0.444,0.783c0.296,0.194,0.979,0.423,2.051,0.687
		s1.903,0.66,2.496,1.188c0.592,0.527,0.888,1.297,0.888,2.31c0,1.012-0.38,1.833-1.139,2.463s-1.758,0.945-2.996,0.945
		c-1.788,0-3.397-0.662-4.829-1.986l1.502-1.842c1.217,1.066,2.342,1.6,3.376,1.6c0.463,0,0.826-0.1,1.09-0.299
		c0.264-0.199,0.396-0.468,0.396-0.808c0-0.339-0.14-0.608-0.42-0.807s-0.834-0.401-1.663-0.606
		c-1.314-0.312-2.275-0.719-2.884-1.22c-0.607-0.5-0.912-1.287-0.912-2.358s0.385-1.898,1.154-2.479s1.731-0.872,2.884-0.872
		c0.754,0,1.508,0.129,2.262,0.388c0.753,0.258,1.41,0.625,1.97,1.098l-1.275,1.841c-0.98-0.743-1.992-1.114-3.037-1.114
		C713.9,429.766,713.569,429.866,713.327,430.065z"/>
	<path d="M719.376,427.812h2.52v11.291h-2.52V427.812z"/>
	<path d="M732.556,437.543c-1.142,1.115-2.547,1.672-4.216,1.672s-3.074-0.557-4.215-1.672c-1.143-1.114-1.713-2.5-1.713-4.159
		s0.57-3.045,1.713-4.159c1.141-1.115,2.546-1.672,4.215-1.672s3.074,0.557,4.216,1.672c1.142,1.114,1.712,2.501,1.712,4.159
		S733.697,436.429,732.556,437.543z M731.699,433.392c0-1.007-0.322-1.865-0.969-2.576c-0.646-0.71-1.44-1.066-2.382-1.066
		c-0.942,0-1.737,0.355-2.383,1.066c-0.646,0.711-0.969,1.569-0.969,2.576c0,1.007,0.322,1.863,0.969,2.568
		c0.646,0.705,1.44,1.058,2.383,1.058c0.941,0,1.735-0.353,2.382-1.058S731.699,434.399,731.699,433.392z"/>
	<path d="M742.683,427.812h2.521v11.291h-2.521l-5.378-7.075v7.075h-2.521v-11.291h2.358l5.54,7.269V427.812z"/>
	<path d="M748.125,427.812h4.572v11.291h-2.424v-9.142h-2.148V427.812z"/>
	<path d="M753.835,438.819c-0.273-0.274-0.411-0.611-0.411-1.009c0-0.398,0.138-0.735,0.411-1.01
		c0.275-0.274,0.611-0.412,1.01-0.412s0.735,0.137,1.01,0.412c0.275,0.274,0.412,0.611,0.412,1.01c0,0.398-0.137,0.735-0.412,1.009
		c-0.274,0.274-0.611,0.412-1.01,0.412S754.11,439.094,753.835,438.819z"/>
	<path d="M761.129,439.231c-1.562,0-2.73-0.53-3.506-1.591s-1.163-2.477-1.163-4.248c0-1.771,0.388-3.187,1.163-4.248
		c0.775-1.06,1.943-1.591,3.506-1.591c1.561,0,2.729,0.531,3.504,1.591c0.775,1.061,1.163,2.477,1.163,4.248
		c0,1.771-0.388,3.188-1.163,4.248S762.689,439.231,761.129,439.231z M759.465,430.67c-0.355,0.689-0.533,1.599-0.533,2.73
		c0,1.13,0.178,2.041,0.533,2.729s0.909,1.034,1.664,1.034c0.752,0,1.308-0.345,1.663-1.034s0.533-1.599,0.533-2.729
		c0-1.131-0.178-2.041-0.533-2.73c-0.355-0.689-0.911-1.034-1.663-1.034C760.374,429.637,759.82,429.981,759.465,430.67z"/>
	<path d="M766.401,438.819c-0.274-0.274-0.412-0.611-0.412-1.009c0-0.398,0.138-0.735,0.412-1.01
		c0.275-0.274,0.61-0.412,1.009-0.412c0.399,0,0.736,0.137,1.01,0.412c0.275,0.274,0.412,0.611,0.412,1.01
		c0,0.398-0.137,0.735-0.412,1.009c-0.273,0.274-0.61,0.412-1.01,0.412C767.012,439.231,766.677,439.094,766.401,438.819z"/>
	<path d="M773.694,439.231c-1.562,0-2.729-0.53-3.505-1.591s-1.163-2.477-1.163-4.248c0-1.771,0.388-3.187,1.163-4.248
		c0.775-1.06,1.943-1.591,3.505-1.591s2.729,0.531,3.504,1.591c0.776,1.061,1.164,2.477,1.164,4.248
		c0,1.771-0.388,3.188-1.164,4.248C776.424,438.701,775.256,439.231,773.694,439.231z M772.03,430.67
		c-0.355,0.689-0.533,1.599-0.533,2.73c0,1.13,0.178,2.041,0.533,2.729c0.356,0.689,0.909,1.034,1.664,1.034
		c0.753,0,1.309-0.345,1.663-1.034c0.355-0.689,0.533-1.599,0.533-2.729c0-1.131-0.178-2.041-0.533-2.73
		c-0.354-0.689-0.91-1.034-1.663-1.034C772.939,429.637,772.387,429.981,772.03,430.67z"/>
</g>
<path fill-rule="evenodd" clip-rule="evenodd" fill="#9C9C9C" d="M258.192,425.93c-2.55,8.44-7.287,13.625-13.257,18.884
	c6.097,0.232,10.815-2.525,17.107-3.492c-3.481,6.442-7.968,10.404-12.437,14.199c-3.084,2.62-4.284,5.344-4.304,9.388
	c-0.239,49-35.022,91.416-83.132,100.7c-24.484,4.725-48.11,1.284-70.235-10.708c-1.168-0.633-2.289-1.359-3.398-2.094
	c-0.229-0.152-0.306-0.535-0.827-1.515c18.342,0.846,35.049-3.025,50.658-14.83c-8.562-1.518-15.577-3.859-21.465-8.845
	c-4.425-3.746-7.669-8.282-10.057-13.504c-1.02-2.231-0.885-3.431,2.11-3.11c3.268,0.35,6.611,0.691,10.597-1.236
	c-7.291-2.496-13.049-6.152-17.738-11.447c-5.16-5.827-7.908-12.632-8.929-20.254c-0.426-3.184,0.707-3.976,3.633-2.719
	c3.211,1.379,6.546,2.378,11.295,2.717c-2.039-2.076-3.498-3.434-4.812-4.918c-10.09-11.391-12.487-24.304-7.367-38.572
	c1.683-4.691,2.496-4.751,5.796-1.159c17.355,18.893,38.721,30.138,64.154,33.616c6.367,0.87,6.758,0.32,6.654-5.989
	c-0.246-14.946,5.81-26.712,19.191-33.648c13.789-7.147,27.491-6.057,39.84,3.604c3.515,2.75,6.412,3.233,10.411,1.894
	C246.888,431.146,251.925,429.033,258.192,425.93z"/>
<g>
	<path fill="#EA237C" d="M32.372,13.993c1.569,0,2.912,0.542,4.026,1.628c1.114,1.085,1.672,2.53,1.672,4.334
		s-0.554,3.271-1.661,4.4s-2.398,1.694-3.872,1.694c-1.474,0-2.797-0.645-3.971-1.936v1.76h-2.464V9.549h2.464v6.666
		C29.534,14.734,30.802,13.993,32.372,13.993z M28.522,20.043c0,1.115,0.337,2.028,1.012,2.739s1.496,1.067,2.464,1.067
		c0.968,0,1.811-0.352,2.53-1.056c0.718-0.704,1.078-1.617,1.078-2.739s-0.352-2.053-1.056-2.794s-1.547-1.111-2.53-1.111
		c-0.983,0-1.812,0.371-2.486,1.111S28.522,18.929,28.522,20.043z"/>
	<path fill="#EA237C" d="M42.36,30.537c-1.071,0-2.039-0.389-2.904-1.166l1.122-2.002c0.513,0.484,1.045,0.726,1.595,0.726
		c0.55,0,0.998-0.198,1.342-0.594c0.344-0.396,0.517-0.829,0.517-1.298c0-0.206-1.577-4.216-4.73-12.034h2.64l3.498,8.624
		l3.498-8.624h2.64l-5.676,13.904c-0.337,0.762-0.821,1.364-1.452,1.804C43.819,30.317,43.123,30.537,42.36,30.537z"/>
	<path fill="#EA237C" d="M70.41,10.495h3.432v15.378H70.41l-7.326-9.636v9.636h-3.432V10.495h3.212l7.546,9.9V10.495z"/>
	<path fill="#EA237C" d="M87.35,25.873h-3.102v-1.43c-0.851,1.071-1.903,1.606-3.157,1.606s-2.307-0.363-3.157-1.089
		c-0.851-0.726-1.276-1.694-1.276-2.904s0.44-2.116,1.32-2.717c0.88-0.601,2.083-0.902,3.608-0.902h2.464v-0.066
		c0-1.261-0.667-1.892-2.002-1.892c-0.572,0-1.177,0.114-1.815,0.341c-0.638,0.228-1.177,0.51-1.617,0.847l-1.474-2.134
		c1.554-1.129,3.329-1.694,5.324-1.694c1.438,0,2.61,0.36,3.52,1.078c0.909,0.719,1.364,1.855,1.364,3.41V25.873z M84.027,21.363
		v-0.572h-2.068c-1.32,0-1.98,0.411-1.98,1.232c0,0.426,0.157,0.752,0.473,0.979c0.315,0.228,0.766,0.341,1.353,0.341
		s1.104-0.18,1.551-0.539C83.804,22.445,84.027,21.965,84.027,21.363z"/>
	<path fill="#EA237C" d="M90.638,12.53c-0.374-0.374-0.561-0.833-0.561-1.375s0.187-1.001,0.561-1.375
		c0.374-0.374,0.833-0.561,1.375-0.561s1.001,0.187,1.375,0.561c0.374,0.374,0.561,0.833,0.561,1.375s-0.187,1.001-0.561,1.375
		c-0.374,0.374-0.833,0.561-1.375,0.561S91.012,12.904,90.638,12.53z M93.663,25.873h-3.3V14.037h3.3V25.873z"/>
	<path fill="#EA237C" d="M100.087,25.873h-3.3V9.549h3.3V25.873z"/>
	<path fill="#EA237C" d="M113.463,24.157c-1.335,1.261-2.9,1.892-4.697,1.892c-1.797,0-3.282-0.553-4.455-1.661
		c-1.174-1.107-1.76-2.592-1.76-4.455c0-1.862,0.598-3.344,1.793-4.444c1.195-1.1,2.607-1.65,4.235-1.65
		c1.628,0,3.01,0.492,4.147,1.474c1.136,0.983,1.705,2.332,1.705,4.048v1.76h-8.624c0.102,0.646,0.44,1.173,1.012,1.584
		c0.572,0.411,1.217,0.616,1.936,0.616c1.159,0,2.112-0.389,2.86-1.166L113.463,24.157z M110.295,17.139
		c-0.455-0.381-1.009-0.572-1.661-0.572c-0.653,0-1.25,0.198-1.793,0.594s-0.858,0.932-0.946,1.606h5.192
		C111.013,18.063,110.75,17.521,110.295,17.139z"/>
	<path fill="#EA237C" d="M121.548,26.049c-1.401,0-2.651-0.594-3.751-1.782c-1.1-1.188-1.65-2.662-1.65-4.422
		c0-1.76,0.535-3.201,1.606-4.323s2.325-1.683,3.762-1.683c1.437,0,2.61,0.506,3.52,1.518V9.549h3.3v16.324h-3.3v-1.562
		C124.111,25.47,122.948,26.049,121.548,26.049z M119.469,19.977c0,0.954,0.286,1.734,0.858,2.343
		c0.572,0.609,1.239,0.913,2.002,0.913s1.412-0.304,1.947-0.913c0.536-0.608,0.803-1.393,0.803-2.354c0-0.96-0.268-1.76-0.803-2.398
		c-0.535-0.638-1.191-0.957-1.969-0.957s-1.445,0.323-2.002,0.968C119.747,18.225,119.469,19.024,119.469,19.977z"/>
	<path fill="#EA237C" d="M137.596,10.495h3.432v15.378h-3.432V10.495z"/>
	<path fill="#EA237C" d="M148.222,16.413v5.302c0,0.455,0.117,0.811,0.352,1.067c0.234,0.257,0.513,0.385,0.836,0.385
		c0.616,0,1.136-0.278,1.562-0.836l1.232,2.31c-1.027,0.938-2.108,1.408-3.245,1.408s-2.097-0.374-2.882-1.122
		c-0.785-0.748-1.177-1.768-1.177-3.058v-5.456h-1.386v-2.376h1.386v-3.542h3.322v3.542h2.86v2.376H148.222z"/>
</g>
<g>
</g>
<g>
</g>
<g>
</g>
<g>
</g>
<g>
</g>
<g>
</g>
<g>
</g>
<g>
</g>
<g>
</g>
<g>
</g>
<g>
</g>
<g>
</g>
<g>
</g>
<g>
</g>
<g>
</g>
</svg>
