<?xml version="1.0" encoding="utf-8"?>
<!-- Generator: Adobe Illustrator 16.0.0, SVG Export Plug-In . SVG Version: 6.00 Build 0)  -->
<!DOCTYPE svg PUBLIC "-//W3C//DTD SVG 1.1//EN" "http://www.w3.org/Graphics/SVG/1.1/DTD/svg11.dtd">
<svg version="1.1" id="Layer_1" xmlns="http://www.w3.org/2000/svg" xmlns:xlink="http://www.w3.org/1999/xlink" x="0px" y="0px"
	 width="155px" height="34.5px" viewBox="0 0 155 34.5" enable-background="new 0 0 155 34.5" xml:space="preserve">
<g>
	<path d="M235.761,220.569v3.305h11.933v9.913h-11.933v39.012h-13.86v-39.012h-5.783v-9.913h5.783v-3.029
		c0-5.384,1.636-9.653,4.911-12.806c3.273-3.15,7.344-4.727,12.209-4.727c4.864,0,9.285,1.836,13.264,5.508l-4.957,9.271
		c-2.019-2.325-4.254-3.488-6.701-3.488c-1.409,0-2.57,0.505-3.488,1.515C236.221,217.127,235.761,218.611,235.761,220.569z"/>
	<path d="M297.63,272.799h-12.943v-5.966c-3.55,4.468-7.94,6.701-13.172,6.701c-5.232,0-9.624-1.515-13.172-4.544
		c-3.55-3.029-5.324-7.068-5.324-12.116c0-5.049,1.836-8.827,5.508-11.337c3.672-2.508,8.689-3.763,15.054-3.763h10.28v-0.276
		c0-5.262-2.785-7.894-8.353-7.894c-2.386,0-4.911,0.475-7.573,1.423c-2.663,0.95-4.911,2.127-6.747,3.534l-6.15-8.904
		c6.486-4.711,13.892-7.068,22.214-7.068c5.997,0,10.892,1.5,14.687,4.498c3.793,2.999,5.691,7.743,5.691,14.228V272.799z
		 M283.769,253.982v-2.387h-8.628c-5.507,0-8.262,1.713-8.262,5.14c0,1.775,0.657,3.137,1.974,4.085
		c1.316,0.949,3.197,1.423,5.645,1.423c2.447,0,4.604-0.749,6.472-2.249C282.834,258.496,283.769,256.492,283.769,253.982z"/>
	<path d="M326.083,233.328v22.123c0,1.897,0.49,3.382,1.469,4.452c0.979,1.071,2.143,1.606,3.489,1.606
		c2.569,0,4.741-1.162,6.516-3.488l5.142,9.638c-4.286,3.917-8.798,5.875-13.539,5.875c-4.744,0-8.753-1.561-12.027-4.682
		c-3.273-3.121-4.91-7.374-4.91-12.759v-22.765h-5.784v-9.913h5.784v-14.779h13.859v14.779h11.934v9.913H326.083z"/>
	<path d="M385.749,258.204c0,4.651-1.684,8.369-5.049,11.152c-3.366,2.786-7.68,4.177-12.941,4.177
		c-3.551,0-7.238-0.643-11.062-1.928c-3.824-1.284-7.206-3.089-10.143-5.415l4.957-7.986c5.69,4.284,11.199,6.425,16.522,6.425
		c2.325,0,4.161-0.535,5.507-1.606c1.346-1.07,2.02-2.433,2.02-4.084c0-2.447-3.245-4.651-9.73-6.61
		c-0.49-0.184-0.857-0.305-1.102-0.367c-10.158-2.753-15.237-7.343-15.237-13.769c0-4.528,1.76-8.154,5.279-10.878
		c3.518-2.722,8.091-4.084,13.722-4.084c5.63,0,10.954,1.653,15.972,4.957l-3.854,7.619c-3.979-2.631-8.293-3.947-12.943-3.947
		c-2.449,0-4.438,0.445-5.967,1.331c-1.531,0.888-2.294,2.218-2.294,3.993c0,1.592,0.795,2.754,2.386,3.488
		c1.102,0.551,2.647,1.071,4.637,1.561c1.988,0.491,3.748,0.979,5.279,1.469c1.528,0.49,3.013,1.041,4.45,1.652
		c1.437,0.612,2.984,1.469,4.635,2.571C384.096,250.126,385.749,253.555,385.749,258.204z"/>
	<path d="M410.073,232.227v24.784c0,2.326,0.612,4.177,1.835,5.553c1.225,1.377,2.938,2.065,5.141,2.065s4.314-1.07,6.333-3.212
		l4.223,7.251c-3.612,3.245-7.604,4.865-11.979,4.865c-4.375,0-8.109-1.515-11.199-4.544c-3.091-3.029-4.635-7.113-4.635-12.254
		v-24.508h-6.15v-8.261h6.15v-15.33h10.281v15.33h12.851v8.261H410.073z"/>
	<path d="M461.384,233.604c-5.079,0-8.903,1.653-11.474,4.957c-2.569,3.305-3.854,7.742-3.854,13.31v20.929h-10.28v-48.833h10.28
		v9.821c1.652-3.06,3.901-5.568,6.746-7.527c2.846-1.958,5.86-2.968,9.042-3.029l0.093,10.373
		C461.751,233.604,461.569,233.604,461.384,233.604z"/>
	<path d="M511.32,272.799h-9.363v-6.517c-4.04,4.835-9.454,7.251-16.248,7.251c-5.079,0-9.285-1.437-12.621-4.314
		c-3.335-2.875-5.002-6.715-5.002-11.52c0-4.803,1.773-8.399,5.325-10.785c3.548-2.387,8.351-3.58,14.41-3.58h13.309v-1.836
		c0-6.485-3.61-9.729-10.83-9.729c-4.53,0-9.24,1.652-14.137,4.956l-4.589-6.425c5.934-4.711,12.667-7.068,20.194-7.068
		c5.751,0,10.449,1.455,14.09,4.36c3.64,2.908,5.462,7.481,5.462,13.723V272.799z M501.039,254.625v-4.131h-11.565
		c-7.405,0-11.106,2.326-11.106,6.976c0,2.386,0.916,4.208,2.753,5.462c1.836,1.255,4.391,1.881,7.665,1.881
		c3.273,0,6.134-0.918,8.583-2.753C499.814,260.224,501.039,257.745,501.039,254.625z"/>
	<path d="M551.801,223.231c6.546,0,12.146,2.265,16.798,6.792c4.649,4.53,6.976,10.556,6.976,18.083
		c0,7.527-2.311,13.647-6.93,18.359c-4.621,4.712-10.005,7.068-16.156,7.068c-6.15,0-11.673-2.692-16.568-8.078v25.151h-10.28
		v-66.641h10.28v8.537C539.959,226.322,545.251,223.231,551.801,223.231z M535.735,248.474c0,4.651,1.407,8.461,4.224,11.429
		c2.813,2.969,6.242,4.452,10.28,4.452c4.039,0,7.557-1.468,10.557-4.406c2.996-2.937,4.497-6.746,4.497-11.428
		s-1.469-8.567-4.405-11.658c-2.937-3.09-6.457-4.635-10.557-4.635s-7.559,1.545-10.372,4.635
		C537.143,239.953,535.735,243.824,535.735,248.474z"/>
</g>
<path fill="#EA237C" d="M10.44,26.985c-0.778,0-1.557,0-2.335,0c-0.632-0.121-1.266-0.239-1.897-0.365
	c-0.354-0.071-0.532-0.255-0.595-0.654c-0.468-2.988-0.966-5.972-1.458-8.957c-0.089-0.541-0.004-1.239-0.95-1.034
	c0-1.108,0-2.159,0-3.219c4.071,0,8.107,0,12.14,0c0,1.088,0,2.125,0,3.25c-0.95-0.29-0.855,0.417-0.941,0.94
	c-0.494,2.984-0.991,5.968-1.458,8.956c-0.069,0.438-0.254,0.66-0.667,0.735C11.666,26.752,11.054,26.87,10.44,26.985z"/>
<path fill-rule="evenodd" clip-rule="evenodd" fill="#EA237C" d="M14.618,9.481c0.286-0.736,0.404-1.374-0.023-1.99
	c-0.49-0.704-1.249-0.313-1.812-0.46c-0.07-0.48-0.032-0.984-0.232-1.365c-0.183-0.349-0.622-0.563-0.999-0.742
	c-0.094-0.304-0.12-0.655-0.294-0.901c-0.511-0.725-0.749-1.487-0.494-2.393C9.965,2.208,9.2,2.736,8.465,3.303
	C8.21,3.5,8.002,3.73,7.853,3.993c0.401,0.065,0.709,0.41,0.709,0.831c0,0.297-0.154,0.557-0.386,0.708
	c0.237,0.282,0.386,0.642,0.386,1.041c0,0.899-0.729,1.627-1.628,1.627c-0.406,0-0.774-0.154-1.059-0.401
	c-0.224,0.15-0.492,0.238-0.782,0.238c-0.46,0-0.865-0.225-1.12-0.567C3.539,8.075,3.604,8.712,3.947,9.451
	c-0.902-0.158-1.542,0.115-1.864,0.942c0,0.287,0,0.573,0,0.86c0.311,0.72,0.827,0.988,1.637,0.98c3.702-0.04,7.404-0.04,11.107,0
	c0.81,0.008,1.326-0.26,1.637-0.98c0-0.287,0-0.574,0-0.86C16.133,9.611,15.56,9.257,14.618,9.481z"/>
<g>
	<path fill="#EA237C" d="M153.409,230.065c0,3.223,0,6.419,0,9.789c2.878-0.624,2.619,1.5,2.891,3.146
		c1.497,9.076,3.013,18.153,4.436,27.242c0.19,1.213,0.733,1.774,1.81,1.989c1.921,0.384,3.848,0.741,5.772,1.109
		c1.689,0,3.378,0,5.067,0c3.061-7.202,9.821-24.86,11.239-43.275C174.256,230.065,163.872,230.065,153.409,230.065z"/>
	<path fill="#D61877" d="M181.01,272.289c1.256-0.231,1.817-0.904,2.028-2.238c1.418-9.089,2.93-18.164,4.433-27.241
		c0.261-1.589-0.027-3.74,2.864-2.86c0-3.422,0-6.575,0-9.885c-1.903,0-3.808,0-5.712,0c-1.418,18.415-8.178,36.073-11.239,43.275
		c0.678,0,1.356,0,2.034,0C177.284,272.99,179.146,272.633,181.01,272.289z"/>
	<path fill-rule="evenodd" clip-rule="evenodd" fill="#EA237C" d="M184.089,212.744c-0.542,0.022-1.067,0.024-1.546-0.101
		c-0.212-1.459-0.096-2.994-0.705-4.152c-0.556-1.06-1.893-1.712-3.039-2.255c-0.285-0.922-0.365-1.991-0.894-2.742
		c-1.556-2.205-2.278-4.524-1.502-7.279c-2.43,1.761-4.758,3.367-6.993,5.092c-0.776,0.6-1.408,1.299-1.863,2.099
		c1.222,0.197,2.158,1.248,2.158,2.525c0,0.903-0.469,1.694-1.173,2.151c0.721,0.86,1.173,1.955,1.173,3.166
		c0,2.734-2.216,4.951-4.951,4.951c-1.237,0-2.354-0.47-3.222-1.22c-0.679,0.457-1.497,0.725-2.376,0.725
		c-1.399,0-2.63-0.684-3.407-1.725c-1.324,1.841-1.123,3.781-0.083,6.027c-2.742-0.48-4.691,0.349-5.67,2.867
		c0,0.87,0,1.742,0,2.616c0.946,2.191,2.516,3.006,4.979,2.981c9.918-0.106,19.839-0.113,29.759-0.032
		C185.046,223.168,184.901,217.863,184.089,212.744z"/>
	<path fill-rule="evenodd" clip-rule="evenodd" fill="#D61877" d="M193.737,225.488c0-0.874,0-1.746,0-2.616
		c-1.002-2.379-2.747-3.455-5.613-2.774c0.871-2.238,1.229-4.18-0.072-6.054c-1.072-1.543-2.57-1.357-3.964-1.3
		c0.812,5.119,0.958,10.425,0.645,15.693c1.342,0.011,2.684,0.018,4.025,0.032C191.222,228.494,192.792,227.679,193.737,225.488z"/>
	<circle fill-rule="evenodd" clip-rule="evenodd" fill="#FFFFFF" cx="161.478" cy="229.352" r="5.208"/>
	<circle fill-rule="evenodd" clip-rule="evenodd" fill="#FFFFFF" cx="177.599" cy="229.352" r="5.209"/>
	<circle fill-rule="evenodd" clip-rule="evenodd" fill="#212121" cx="161.539" cy="229.291" r="1.85"/>
	<circle fill-rule="evenodd" clip-rule="evenodd" fill="#212121" cx="177.66" cy="229.291" r="1.85"/>
	<circle fill-rule="evenodd" clip-rule="evenodd" fill="#FFFFFF" cx="162.713" cy="228.361" r="1.314"/>
	<circle fill-rule="evenodd" clip-rule="evenodd" fill="#FFFFFF" cx="178.834" cy="228.361" r="1.314"/>
	<path fill-rule="evenodd" clip-rule="evenodd" fill="#FFFFFF" d="M160.883,237.25h18.533c0,0-2.647,9.303-9.303,9.303
		C163.457,246.553,160.883,237.25,160.883,237.25z"/>
	<g>
		<path fill-rule="evenodd" clip-rule="evenodd" fill="#D61877" d="M168.021,242.202c-1.535,0-2.784,1.21-2.854,2.728
			c1.306,1.181,2.938,2.029,4.945,2.029c0.017,0,0.032-0.002,0.048-0.002c0.447-0.505,0.721-1.167,0.721-1.894
			C170.882,243.483,169.601,242.202,168.021,242.202z"/>
		<path fill-rule="evenodd" clip-rule="evenodd" fill="#D61877" d="M170.953,242.202c-1.58,0-2.861,1.281-2.861,2.861
			c0,0.657,0.224,1.259,0.595,1.742c0.454,0.097,0.927,0.155,1.426,0.155c1.345,0,2.523-0.384,3.552-0.99
			c0.096-0.286,0.149-0.59,0.149-0.907C173.813,243.483,172.532,242.202,170.953,242.202z"/>
	</g>
</g>
<g>
	<path d="M425.281,287l2.875-7.188h2.73l-4.539,11.291h-2.132l-4.539-11.291h2.729L425.281,287z"/>
	<path d="M438.752,279.812v2.246h-5.621v2.326h5.056v2.148h-5.056v2.342h5.799v2.229h-8.318v-11.291H438.752z"/>
	<path d="M448.718,283.559c0,1.809-0.716,2.978-2.148,3.505l2.859,4.038h-3.101l-2.503-3.602h-1.745v3.602h-2.52v-11.291h4.28
		c1.755,0,3.006,0.296,3.755,0.889S448.718,282.246,448.718,283.559z M445.681,284.899c0.312-0.28,0.469-0.724,0.469-1.333
		c0-0.608-0.162-1.026-0.484-1.251c-0.323-0.226-0.889-0.339-1.696-0.339h-1.89v3.343h1.841
		C444.782,285.319,445.368,285.18,445.681,284.899z"/>
	<path d="M452.327,282.065c-0.242,0.199-0.363,0.463-0.363,0.792s0.147,0.589,0.444,0.783c0.296,0.194,0.979,0.423,2.051,0.687
		s1.903,0.66,2.496,1.188c0.592,0.527,0.888,1.297,0.888,2.31c0,1.012-0.38,1.833-1.139,2.463s-1.758,0.945-2.996,0.945
		c-1.788,0-3.397-0.662-4.83-1.986l1.502-1.842c1.217,1.066,2.342,1.6,3.376,1.6c0.463,0,0.826-0.1,1.09-0.299
		c0.264-0.199,0.396-0.468,0.396-0.808c0-0.339-0.14-0.608-0.42-0.807s-0.834-0.401-1.663-0.606
		c-1.314-0.312-2.275-0.719-2.883-1.22c-0.608-0.5-0.913-1.287-0.913-2.358s0.385-1.898,1.155-2.479
		c0.77-0.582,1.731-0.872,2.883-0.872c0.754,0,1.508,0.129,2.262,0.388c0.753,0.258,1.41,0.625,1.97,1.098l-1.275,1.841
		c-0.98-0.743-1.992-1.114-3.037-1.114C452.9,281.766,452.569,281.866,452.327,282.065z"/>
	<path d="M458.376,279.812h2.52v11.291h-2.52V279.812z"/>
	<path d="M471.556,289.543c-1.142,1.115-2.547,1.672-4.216,1.672s-3.074-0.557-4.215-1.672c-1.143-1.114-1.713-2.5-1.713-4.159
		s0.57-3.045,1.713-4.159c1.141-1.115,2.546-1.672,4.215-1.672s3.074,0.557,4.216,1.672c1.142,1.114,1.712,2.501,1.712,4.159
		S472.697,288.429,471.556,289.543z M470.699,285.392c0-1.007-0.322-1.865-0.969-2.576c-0.646-0.71-1.44-1.066-2.382-1.066
		c-0.942,0-1.737,0.355-2.383,1.066c-0.646,0.711-0.969,1.569-0.969,2.576c0,1.007,0.322,1.863,0.969,2.568
		c0.646,0.705,1.44,1.058,2.383,1.058c0.941,0,1.735-0.353,2.382-1.058S470.699,286.399,470.699,285.392z"/>
	<path d="M481.683,279.812h2.521v11.291h-2.521l-5.378-7.075v7.075h-2.521v-11.291h2.358l5.54,7.269V279.812z"/>
	<path d="M487.125,279.812h4.572v11.291h-2.424v-9.142h-2.148V279.812z"/>
	<path d="M492.835,290.819c-0.273-0.274-0.411-0.611-0.411-1.009c0-0.398,0.138-0.735,0.411-1.01
		c0.275-0.274,0.611-0.412,1.01-0.412s0.735,0.137,1.01,0.412c0.275,0.274,0.412,0.611,0.412,1.01c0,0.398-0.137,0.735-0.412,1.009
		c-0.274,0.274-0.611,0.412-1.01,0.412S493.11,291.094,492.835,290.819z"/>
	<path d="M500.129,291.231c-1.562,0-2.73-0.53-3.506-1.591s-1.163-2.477-1.163-4.248c0-1.771,0.388-3.187,1.163-4.248
		c0.775-1.06,1.943-1.591,3.506-1.591c1.561,0,2.729,0.531,3.504,1.591c0.775,1.061,1.163,2.477,1.163,4.248
		c0,1.771-0.388,3.188-1.163,4.248S501.689,291.231,500.129,291.231z M498.465,282.67c-0.355,0.689-0.533,1.599-0.533,2.73
		c0,1.13,0.178,2.041,0.533,2.729s0.909,1.034,1.664,1.034c0.752,0,1.308-0.345,1.663-1.034s0.533-1.599,0.533-2.729
		c0-1.131-0.178-2.041-0.533-2.73c-0.355-0.689-0.911-1.034-1.663-1.034C499.374,281.637,498.82,281.981,498.465,282.67z"/>
	<path d="M505.401,290.819c-0.274-0.274-0.412-0.611-0.412-1.009c0-0.398,0.138-0.735,0.412-1.01
		c0.275-0.274,0.61-0.412,1.009-0.412c0.399,0,0.736,0.137,1.01,0.412c0.275,0.274,0.412,0.611,0.412,1.01
		c0,0.398-0.137,0.735-0.412,1.009c-0.273,0.274-0.61,0.412-1.01,0.412C506.012,291.231,505.677,291.094,505.401,290.819z"/>
	<path d="M512.694,291.231c-1.562,0-2.729-0.53-3.505-1.591s-1.163-2.477-1.163-4.248c0-1.771,0.388-3.187,1.163-4.248
		c0.775-1.06,1.943-1.591,3.505-1.591s2.729,0.531,3.504,1.591c0.776,1.061,1.164,2.477,1.164,4.248
		c0,1.771-0.388,3.188-1.164,4.248C515.424,290.701,514.256,291.231,512.694,291.231z M511.03,282.67
		c-0.355,0.689-0.533,1.599-0.533,2.73c0,1.13,0.178,2.041,0.533,2.729c0.356,0.689,0.909,1.034,1.664,1.034
		c0.753,0,1.309-0.345,1.663-1.034c0.355-0.689,0.533-1.599,0.533-2.729c0-1.131-0.178-2.041-0.533-2.73
		c-0.354-0.689-0.91-1.034-1.663-1.034C511.939,281.637,511.387,281.981,511.03,282.67z"/>
</g>
<g>
	<path fill="#EA237C" d="M33.696,8.034v1.161h4.191v3.482h-4.191V26.38h-4.869V12.676h-2.031V9.194h2.031V8.13
		c0-1.892,0.575-3.391,1.725-4.498c1.149-1.107,2.58-1.661,4.289-1.661c1.708,0,3.262,0.645,4.659,1.935l-1.741,3.256
		c-0.709-0.816-1.495-1.225-2.354-1.225c-0.495,0-0.903,0.178-1.225,0.532C33.857,6.824,33.696,7.346,33.696,8.034z"/>
	<path fill="#EA237C" d="M55.428,26.38h-4.547v-2.096c-1.247,1.569-2.789,2.354-4.626,2.354c-1.838,0-3.38-0.532-4.627-1.596
		c-1.247-1.064-1.87-2.483-1.87-4.256c0-1.773,0.645-3.1,1.935-3.982c1.29-0.881,3.052-1.322,5.288-1.322h3.611v-0.097
		c0-1.848-0.978-2.773-2.934-2.773c-0.838,0-1.725,0.167-2.66,0.5c-0.936,0.333-1.725,0.747-2.37,1.241l-2.16-3.127
		c2.279-1.655,4.88-2.483,7.803-2.483c2.106,0,3.826,0.527,5.159,1.58c1.333,1.053,2,2.72,2,4.998V26.38z M50.559,19.77v-0.838
		h-3.031c-1.935,0-2.902,0.602-2.902,1.806c0,0.624,0.23,1.102,0.693,1.435c0.462,0.333,1.123,0.5,1.983,0.5s1.618-0.263,2.273-0.79
		C50.23,21.355,50.559,20.651,50.559,19.77z"/>
	<path fill="#EA237C" d="M65.422,12.515v7.771c0,0.666,0.172,1.188,0.516,1.563c0.343,0.376,0.752,0.564,1.225,0.564
		c0.903,0,1.665-0.408,2.289-1.226l1.806,3.386c-1.505,1.376-3.09,2.063-4.756,2.063c-1.667,0-3.075-0.548-4.225-1.645
		c-1.149-1.096-1.724-2.59-1.724-4.482v-7.996h-2.032V9.033h2.032V3.842h4.868v5.191h4.192v3.482H65.422z"/>
	<path fill="#EA237C" d="M86.38,21.253c0,1.634-0.591,2.94-1.773,3.917c-1.182,0.979-2.698,1.467-4.546,1.467
		c-1.247,0-2.542-0.226-3.885-0.677c-1.343-0.451-2.531-1.085-3.562-1.902l1.74-2.806c2,1.505,3.934,2.257,5.804,2.257
		c0.816,0,1.461-0.188,1.935-0.564c0.473-0.376,0.709-0.854,0.709-1.435c0-0.86-1.14-1.634-3.417-2.322
		c-0.172-0.064-0.301-0.107-0.388-0.129c-3.568-0.967-5.352-2.579-5.352-4.836c0-1.59,0.618-2.864,1.854-3.821
		c1.235-0.957,2.842-1.435,4.82-1.435c1.978,0,3.848,0.581,5.61,1.741l-1.354,2.676C83.177,12.462,81.662,12,80.028,12
		c-0.86,0-1.559,0.156-2.096,0.467c-0.538,0.312-0.806,0.779-0.806,1.403c0,0.559,0.279,0.967,0.838,1.225
		c0.387,0.193,0.93,0.376,1.629,0.548c0.698,0.172,1.316,0.344,1.854,0.516c0.537,0.172,1.059,0.366,1.563,0.581
		c0.504,0.215,1.048,0.516,1.628,0.903C85.799,18.416,86.38,19.62,86.38,21.253z"/>
	<path fill="#EA237C" d="M94.924,12.128v8.706c0,0.817,0.215,1.467,0.645,1.951c0.43,0.484,1.032,0.726,1.806,0.726
		c0.774,0,1.516-0.376,2.225-1.128l1.483,2.547c-1.269,1.14-2.671,1.709-4.208,1.709s-2.848-0.532-3.934-1.596
		c-1.086-1.064-1.628-2.499-1.628-4.304v-8.609h-2.16V9.227h2.16V3.842h3.611v5.385h4.514v2.902H94.924z"/>
	<path fill="#EA237C" d="M112.948,12.612c-1.784,0-3.127,0.581-4.03,1.741c-0.902,1.161-1.354,2.719-1.354,4.675v7.352h-3.611V9.227
		h3.611v3.45c0.581-1.075,1.371-1.956,2.37-2.644c1-0.688,2.059-1.042,3.176-1.064l0.032,3.644
		C113.077,12.612,113.013,12.612,112.948,12.612z"/>
	<path fill="#EA237C" d="M130.488,26.38h-3.289v-2.289c-1.419,1.698-3.321,2.547-5.707,2.547c-1.784,0-3.262-0.505-4.433-1.515
		c-1.172-1.01-1.757-2.359-1.757-4.047c0-1.687,0.623-2.95,1.871-3.788c1.247-0.839,2.933-1.258,5.062-1.258h4.675v-0.645
		c0-2.278-1.268-3.417-3.804-3.417c-1.591,0-3.246,0.58-4.966,1.741l-1.612-2.257c2.084-1.655,4.449-2.483,7.093-2.483
		c2.02,0,3.67,0.511,4.949,1.532c1.278,1.021,1.918,2.628,1.918,4.82V26.38z M126.877,19.996v-1.451h-4.062
		c-2.601,0-3.901,0.817-3.901,2.45c0,0.838,0.321,1.478,0.967,1.918c0.645,0.441,1.542,0.661,2.692,0.661
		c1.15,0,2.154-0.323,3.015-0.967C126.447,21.962,126.877,21.092,126.877,19.996z"/>
	<path fill="#EA237C" d="M144.708,8.968c2.299,0,4.267,0.796,5.9,2.386c1.633,1.591,2.45,3.708,2.45,6.352
		c0,2.644-0.812,4.794-2.434,6.449c-1.623,1.655-3.514,2.482-5.675,2.482s-4.1-0.946-5.82-2.837v8.834h-3.611V9.227h3.611v2.999
		C140.548,10.054,142.407,8.968,144.708,8.968z M139.064,17.835c0,1.633,0.494,2.972,1.483,4.014
		c0.989,1.043,2.193,1.564,3.611,1.564s2.654-0.516,3.708-1.548c1.052-1.032,1.58-2.37,1.58-4.014s-0.516-3.009-1.547-4.095
		c-1.031-1.085-2.268-1.628-3.708-1.628s-2.655,0.543-3.644,1.628C139.559,14.842,139.064,16.202,139.064,17.835z"/>
</g>
<g>
	<path fill="#EA237C" d="M414.409,378.065c0,3.223,0,6.419,0,9.789c2.878-0.624,2.619,1.5,2.891,3.146
		c1.497,9.076,3.013,18.153,4.436,27.242c0.19,1.213,0.733,1.774,1.81,1.989c1.921,0.384,3.848,0.741,5.772,1.109
		c1.689,0,3.378,0,5.067,0c3.061-7.202,9.821-24.86,11.239-43.275C435.256,378.065,424.872,378.065,414.409,378.065z"/>
	<path fill="#D61877" d="M442.01,420.289c1.256-0.231,1.817-0.904,2.028-2.238c1.418-9.089,2.93-18.164,4.433-27.241
		c0.261-1.589-0.027-3.74,2.864-2.86c0-3.422,0-6.575,0-9.885c-1.903,0-3.808,0-5.712,0c-1.418,18.415-8.178,36.073-11.239,43.275
		c0.678,0,1.356,0,2.034,0C438.284,420.99,440.146,420.633,442.01,420.289z"/>
	<path fill-rule="evenodd" clip-rule="evenodd" fill="#EA237C" d="M445.089,360.744c-0.542,0.022-1.067,0.024-1.546-0.101
		c-0.212-1.459-0.096-2.994-0.705-4.152c-0.556-1.06-1.893-1.712-3.039-2.255c-0.285-0.922-0.365-1.991-0.894-2.742
		c-1.556-2.205-2.278-4.524-1.502-7.279c-2.43,1.761-4.758,3.367-6.993,5.092c-0.776,0.6-1.408,1.299-1.863,2.099
		c1.222,0.197,2.158,1.248,2.158,2.525c0,0.903-0.469,1.694-1.173,2.151c0.721,0.86,1.173,1.955,1.173,3.166
		c0,2.734-2.216,4.951-4.951,4.951c-1.237,0-2.354-0.47-3.222-1.22c-0.679,0.457-1.497,0.725-2.376,0.725
		c-1.399,0-2.63-0.684-3.407-1.725c-1.324,1.841-1.123,3.781-0.083,6.027c-2.742-0.48-4.691,0.349-5.67,2.867
		c0,0.87,0,1.742,0,2.616c0.946,2.191,2.516,3.006,4.979,2.981c9.918-0.106,19.839-0.113,29.759-0.032
		C446.046,371.168,445.901,365.863,445.089,360.744z"/>
	<path fill-rule="evenodd" clip-rule="evenodd" fill="#D61877" d="M454.737,373.488c0-0.874,0-1.746,0-2.616
		c-1.003-2.379-2.747-3.455-5.613-2.774c0.871-2.238,1.229-4.18-0.072-6.054c-1.072-1.543-2.57-1.357-3.964-1.3
		c0.812,5.119,0.958,10.425,0.645,15.693c1.342,0.011,2.684,0.018,4.025,0.032C452.222,376.494,453.791,375.679,454.737,373.488z"/>
	<circle fill-rule="evenodd" clip-rule="evenodd" fill="#FFFFFF" cx="422.478" cy="377.352" r="5.208"/>
	<circle fill-rule="evenodd" clip-rule="evenodd" fill="#FFFFFF" cx="438.599" cy="377.352" r="5.209"/>
	<circle fill-rule="evenodd" clip-rule="evenodd" fill="#212121" cx="422.539" cy="377.291" r="1.85"/>
	<circle fill-rule="evenodd" clip-rule="evenodd" fill="#212121" cx="438.66" cy="377.291" r="1.85"/>
	<circle fill-rule="evenodd" clip-rule="evenodd" fill="#FFFFFF" cx="423.713" cy="376.361" r="1.314"/>
	<circle fill-rule="evenodd" clip-rule="evenodd" fill="#FFFFFF" cx="439.834" cy="376.361" r="1.314"/>
	<path fill-rule="evenodd" clip-rule="evenodd" fill="#FFFFFF" d="M421.883,385.25h18.533c0,0-2.647,9.303-9.303,9.303
		C424.457,394.553,421.883,385.25,421.883,385.25z"/>
	<g>
		<path fill-rule="evenodd" clip-rule="evenodd" fill="#D61877" d="M429.021,390.202c-1.535,0-2.784,1.21-2.854,2.728
			c1.306,1.181,2.938,2.029,4.945,2.029c0.017,0,0.032-0.002,0.048-0.002c0.447-0.505,0.721-1.167,0.721-1.894
			C431.882,391.483,430.601,390.202,429.021,390.202z"/>
		<path fill-rule="evenodd" clip-rule="evenodd" fill="#D61877" d="M431.953,390.202c-1.58,0-2.861,1.281-2.861,2.861
			c0,0.657,0.224,1.259,0.595,1.742c0.454,0.097,0.927,0.155,1.426,0.155c1.345,0,2.523-0.384,3.552-0.99
			c0.096-0.286,0.149-0.59,0.149-0.907C434.813,391.483,433.532,390.202,431.953,390.202z"/>
	</g>
</g>
<g>
	<path d="M686.281,435l2.875-7.188h2.73l-4.539,11.291h-2.133l-4.538-11.291h2.729L686.281,435z"/>
	<path d="M699.752,427.812v2.246h-5.621v2.326h5.056v2.148h-5.056v2.342h5.799v2.229h-8.318v-11.291H699.752z"/>
	<path d="M709.718,431.559c0,1.809-0.716,2.978-2.148,3.505l2.858,4.038h-3.101l-2.503-3.602h-1.745v3.602h-2.52v-11.291h4.28
		c1.755,0,3.006,0.296,3.755,0.889S709.718,430.246,709.718,431.559z M706.681,432.899c0.312-0.28,0.469-0.724,0.469-1.333
		c0-0.608-0.161-1.026-0.484-1.251c-0.323-0.226-0.889-0.339-1.696-0.339h-1.89v3.343h1.841
		C705.781,433.319,706.368,433.18,706.681,432.899z"/>
	<path d="M713.327,430.065c-0.242,0.199-0.363,0.463-0.363,0.792s0.147,0.589,0.444,0.783c0.296,0.194,0.979,0.423,2.051,0.687
		s1.903,0.66,2.496,1.188c0.592,0.527,0.888,1.297,0.888,2.31c0,1.012-0.38,1.833-1.139,2.463s-1.758,0.945-2.996,0.945
		c-1.788,0-3.397-0.662-4.829-1.986l1.502-1.842c1.217,1.066,2.342,1.6,3.376,1.6c0.463,0,0.826-0.1,1.09-0.299
		c0.264-0.199,0.396-0.468,0.396-0.808c0-0.339-0.14-0.608-0.42-0.807s-0.834-0.401-1.663-0.606
		c-1.314-0.312-2.275-0.719-2.884-1.22c-0.607-0.5-0.912-1.287-0.912-2.358s0.385-1.898,1.154-2.479s1.731-0.872,2.884-0.872
		c0.754,0,1.508,0.129,2.262,0.388c0.753,0.258,1.41,0.625,1.97,1.098l-1.275,1.841c-0.98-0.743-1.992-1.114-3.037-1.114
		C713.9,429.766,713.569,429.866,713.327,430.065z"/>
	<path d="M719.376,427.812h2.52v11.291h-2.52V427.812z"/>
	<path d="M732.556,437.543c-1.142,1.115-2.547,1.672-4.216,1.672s-3.074-0.557-4.215-1.672c-1.143-1.114-1.713-2.5-1.713-4.159
		s0.57-3.045,1.713-4.159c1.141-1.115,2.546-1.672,4.215-1.672s3.074,0.557,4.216,1.672c1.142,1.114,1.712,2.501,1.712,4.159
		S733.697,436.429,732.556,437.543z M731.699,433.392c0-1.007-0.322-1.865-0.969-2.576c-0.646-0.71-1.44-1.066-2.382-1.066
		c-0.942,0-1.737,0.355-2.383,1.066c-0.646,0.711-0.969,1.569-0.969,2.576c0,1.007,0.322,1.863,0.969,2.568
		c0.646,0.705,1.44,1.058,2.383,1.058c0.941,0,1.735-0.353,2.382-1.058S731.699,434.399,731.699,433.392z"/>
	<path d="M742.683,427.812h2.521v11.291h-2.521l-5.378-7.075v7.075h-2.521v-11.291h2.358l5.54,7.269V427.812z"/>
	<path d="M748.125,427.812h4.572v11.291h-2.424v-9.142h-2.148V427.812z"/>
	<path d="M753.835,438.819c-0.273-0.274-0.411-0.611-0.411-1.009c0-0.398,0.138-0.735,0.411-1.01
		c0.275-0.274,0.611-0.412,1.01-0.412s0.735,0.137,1.01,0.412c0.275,0.274,0.412,0.611,0.412,1.01c0,0.398-0.137,0.735-0.412,1.009
		c-0.274,0.274-0.611,0.412-1.01,0.412S754.11,439.094,753.835,438.819z"/>
	<path d="M761.129,439.231c-1.562,0-2.73-0.53-3.506-1.591s-1.163-2.477-1.163-4.248c0-1.771,0.388-3.187,1.163-4.248
		c0.775-1.06,1.943-1.591,3.506-1.591c1.561,0,2.729,0.531,3.504,1.591c0.775,1.061,1.163,2.477,1.163,4.248
		c0,1.771-0.388,3.188-1.163,4.248S762.689,439.231,761.129,439.231z M759.465,430.67c-0.355,0.689-0.533,1.599-0.533,2.73
		c0,1.13,0.178,2.041,0.533,2.729s0.909,1.034,1.664,1.034c0.752,0,1.308-0.345,1.663-1.034s0.533-1.599,0.533-2.729
		c0-1.131-0.178-2.041-0.533-2.73c-0.355-0.689-0.911-1.034-1.663-1.034C760.374,429.637,759.82,429.981,759.465,430.67z"/>
	<path d="M766.401,438.819c-0.274-0.274-0.412-0.611-0.412-1.009c0-0.398,0.138-0.735,0.412-1.01
		c0.275-0.274,0.61-0.412,1.009-0.412c0.399,0,0.736,0.137,1.01,0.412c0.275,0.274,0.412,0.611,0.412,1.01
		c0,0.398-0.137,0.735-0.412,1.009c-0.273,0.274-0.61,0.412-1.01,0.412C767.012,439.231,766.677,439.094,766.401,438.819z"/>
	<path d="M773.694,439.231c-1.562,0-2.729-0.53-3.505-1.591s-1.163-2.477-1.163-4.248c0-1.771,0.388-3.187,1.163-4.248
		c0.775-1.06,1.943-1.591,3.505-1.591s2.729,0.531,3.504,1.591c0.776,1.061,1.164,2.477,1.164,4.248
		c0,1.771-0.388,3.188-1.164,4.248C776.424,438.701,775.256,439.231,773.694,439.231z M772.03,430.67
		c-0.355,0.689-0.533,1.599-0.533,2.73c0,1.13,0.178,2.041,0.533,2.729c0.356,0.689,0.909,1.034,1.664,1.034
		c0.753,0,1.309-0.345,1.663-1.034c0.355-0.689,0.533-1.599,0.533-2.729c0-1.131-0.178-2.041-0.533-2.73
		c-0.354-0.689-0.91-1.034-1.663-1.034C772.939,429.637,772.387,429.981,772.03,430.67z"/>
</g>
<path fill-rule="evenodd" clip-rule="evenodd" fill="#9C9C9C" d="M258.192,425.93c-2.55,8.44-7.287,13.625-13.257,18.884
	c6.097,0.232,10.815-2.525,17.107-3.492c-3.481,6.442-7.968,10.404-12.437,14.199c-3.084,2.62-4.284,5.344-4.304,9.388
	c-0.239,49-35.022,91.416-83.132,100.7c-24.484,4.725-48.11,1.284-70.235-10.708c-1.168-0.633-2.289-1.359-3.398-2.094
	c-0.229-0.152-0.306-0.535-0.827-1.515c18.342,0.846,35.049-3.025,50.658-14.83c-8.562-1.518-15.577-3.859-21.465-8.845
	c-4.425-3.746-7.669-8.282-10.057-13.504c-1.02-2.231-0.885-3.431,2.11-3.11c3.268,0.35,6.611,0.691,10.597-1.236
	c-7.291-2.496-13.049-6.152-17.738-11.447c-5.16-5.827-7.908-12.632-8.929-20.254c-0.426-3.184,0.707-3.976,3.633-2.719
	c3.211,1.379,6.546,2.378,11.295,2.717c-2.039-2.076-3.498-3.434-4.812-4.918c-10.09-11.391-12.487-24.304-7.367-38.572
	c1.683-4.691,2.496-4.751,5.796-1.159c17.355,18.893,38.721,30.138,64.154,33.616c6.367,0.87,6.758,0.32,6.654-5.989
	c-0.246-14.946,5.81-26.712,19.191-33.648c13.789-7.147,27.491-6.057,39.84,3.604c3.515,2.75,6.412,3.233,10.411,1.894
	C246.888,431.146,251.925,429.033,258.192,425.93z"/>
<g>
</g>
<g>
</g>
<g>
</g>
<g>
</g>
<g>
</g>
<g>
</g>
<g>
</g>
<g>
</g>
<g>
</g>
<g>
</g>
<g>
</g>
<g>
</g>
<g>
</g>
<g>
</g>
<g>
</g>
</svg>
